<?xml version="1.0" encoding="UTF-8"?>
<svg id="Layer_2" data-name="Layer 2" xmlns="http://www.w3.org/2000/svg" viewBox="0 0 1080 1007.54">
  <g id="Layer_2-2" data-name="Layer 2">
    <path d="M540,60c56.09,0,108.83,21.84,148.49,61.51,39.66,39.66,61.51,92.4,61.51,148.49s-21.84,108.83-61.51,148.49c-39.66,39.66-92.4,61.51-148.49,61.51s-108.83-21.84-148.49-61.51c-39.66-39.66-61.51-92.4-61.51-148.49s21.84-108.83,61.51-148.49c39.66-39.66,92.4-61.51,148.49-61.51m0-60c-149.12,0-270,120.88-270,270s120.88,270,270,270,270-120.88,270-270S689.12,0,540,0h0Z"/>
    <path d="M810,527.54c56.09,0,108.83,21.84,148.49,61.51,39.66,39.66,61.51,92.4,61.51,148.49s-21.84,108.83-61.51,148.49c-39.66,39.66-92.4,61.51-148.49,61.51s-108.83-21.84-148.49-61.51c-39.66-39.66-61.51-92.4-61.51-148.49s21.84-108.83,61.51-148.49c39.66-39.66,92.4-61.51,148.49-61.51m0-60c-149.12,0-270,120.88-270,270s120.88,270,270,270,270-120.88,270-270-120.88-270-270-270h0Z"/>
    <path d="M270,527.54c56.09,0,108.83,21.84,148.49,61.51,39.66,39.66,61.51,92.4,61.51,148.49s-21.84,108.83-61.51,148.49c-39.66,39.66-92.4,61.51-148.49,61.51s-108.83-21.84-148.49-61.51c-39.66-39.66-61.51-92.4-61.51-148.49s21.84-108.83,61.51-148.49c39.66-39.66,92.4-61.51,148.49-61.51m0-60C120.88,467.54,0,588.43,0,737.54s120.88,270,270,270,270-120.88,270-270-120.88-270-270-270h0Z"/>
    <path d="M684.17,239.91c0,50.47-35.27,82.82-86.71,82.82h-119.71v60.5h-58.24V156.76h177.94c51.44,0,86.71,32.68,86.71,83.15Zm-58.24,0c0-34.29-27.18-34.29-44.65-34.29h-103.53v68.27h103.53c17.47,0,44.65,0,44.65-33.97Z"/>
    <path d="M959.18,737.54c0,77-51.44,113.24-110,113.24h-164.35v-226.47h164.35c58.56,0,110,36.24,110,113.24Zm-58.24,0c0-55-29.76-64.38-73.77-64.38h-84.12v128.77h84.12c44,0,73.77-9.38,73.77-64.38Z"/>
    <path d="M259.22,729.46h143.65v121.33h-43.03l-2.59-35.59c-21.35,23.29-55.32,38.82-103.53,38.82-83.47,0-134.59-41.41-134.59-116.47s51.12-116.47,144.29-116.47,135.88,35.26,139.44,91.56h-59.21c-3.24-17.15-18.76-42.71-80.24-42.71-75.71,0-86.06,41.74-86.06,68.91s10.68,70.21,86.06,70.21c56.29,0,78.94-24.59,80.24-41.74h-84.44v-37.85Z"/>
  </g>
</svg>